<svg id="logo" xmlns="http://www.w3.org/2000/svg" viewBox="0 0 173.18652 40.99951"><defs><style>.cls-1{fill:#fff;}</style></defs><title>logo2</title><path class="cls-1" d="M22.37793,16.66748a2.01749,2.01749,0,0,1,.67236.79688A2.29911,2.29911,0,0,1,23.291,18.4751V28.57373a1.86714,1.86714,0,0,1-.22412.9707,1.19262,1.19262,0,0,1-.689.52148,3.04072,3.04072,0,0,1-.70557.13281c-.27148.02246-.53418.04395-.78857.06641v1.0957H29.5166v-1.0957q-.48193-.03369-1.13721-.11621a4.46163,4.46163,0,0,1-1.0708-.249,1.35732,1.35732,0,0,1-.70557-.54785,1.78613,1.78613,0,0,1-.22412-.94629v-9.5293a5.40088,5.40088,0,0,1,1.77637-1.793,3.6729,3.6729,0,0,1,1.82617-.63086q-.0498.29883-.10791.59766a3.46611,3.46611,0,0,0-.05811.66406,1.46393,1.46393,0,0,0,.48975,1.0625,1.93978,1.93978,0,0,0,1.41943.48145,1.40827,1.40827,0,0,0,1.27832-.65527,2.75432,2.75432,0,0,0,.415-1.50293,2.52231,2.52231,0,0,0-.65576-1.82617,2.25648,2.25648,0,0,0-1.70166-.68066,4.84366,4.84366,0,0,0-2.30762.69727,7.44481,7.44481,0,0,0-2.291,2.042h-.083V15.0249l-.23242-.23242-5.44531.36523v1.0957a6.58317,6.58317,0,0,1,.92969.125A2.28109,2.28109,0,0,1,22.37793,16.66748Z"/><path class="cls-1" d="M35.8584,17.814q1.3938,3.31934,2.67188,6.42285,1.27808,3.104,2.855,7.03711a18.90168,18.90168,0,0,1-1.66846,3.3125,6.62478,6.62478,0,0,1-1.9834,2.33594q-.16553-.27979-.44824-.708a4.27992,4.27992,0,0,0-.53076-.67578,2.58441,2.58441,0,0,0-.68066-.51074,1.96415,1.96415,0,0,0-.91309-.19727,1.45167,1.45167,0,0,0-1.13721.52246,1.98559,1.98559,0,0,0-.45605,1.35352,1.80258,1.80258,0,0,0,.73877,1.41113,3.08858,3.08858,0,0,0,2.03369.61426,3.54551,3.54551,0,0,0,1.28662-.24023,4.682,4.682,0,0,0,1.38623-.93848,10.905,10.905,0,0,0,1.60205-2.0498,30.6155,30.6155,0,0,0,1.86768-3.62793q.79688-1.77686,2.33252-5.54492,1.53516-3.769,3.51123-8.35059a2.99762,2.99762,0,0,1,1.21191-1.38672,4.09159,4.09159,0,0,1,1.31152-.57227V14.9917h-6.0791v1.0625a4.49523,4.49523,0,0,1,1.436.45605q.75513.37354.75537.80469a2.712,2.712,0,0,1-.21631.9541q-.21606.55518-.33252.87109-.99756,2.58691-1.80322,4.48633-.8064,1.8999-1.5542,3.6748-.71191-1.85742-2.00342-4.95215-1.29126-3.09375-1.92041-4.73535-.09961-.249-.17432-.48145a1.264,1.264,0,0,1-.07471-.332q0-.24756.69727-.43945a5.31245,5.31245,0,0,1,1.19531-.207V14.9917H33.30176v1.0957a4.41194,4.41194,0,0,1,1.49414.53906A2.38849,2.38849,0,0,1,35.8584,17.814Z"/><path class="cls-1" d="M60.04688,37.63623a8.143,8.143,0,0,1-1.22021-.1582,7.3921,7.3921,0,0,1-1.13721-.291,1.34572,1.34572,0,0,1-.71387-.582,1.95914,1.95914,0,0,1-.23242-.999V30.68018H56.876a5.744,5.744,0,0,0,1.54395.78027,7.43046,7.43046,0,0,0,2.42383.332,6.94906,6.94906,0,0,0,2.88867-.61426,8.05264,8.05264,0,0,0,2.47363-1.75977,8.68756,8.68756,0,0,0,1.71-2.73145,9.37248,9.37248,0,0,0,.64746-3.54395,10.56672,10.56672,0,0,0-.53955-3.51074,8.52463,8.52463,0,0,0-1.519-2.69824,6.88376,6.88376,0,0,0-2.18311-1.74316,6.0692,6.0692,0,0,0-2.79736-.64746,5.47587,5.47587,0,0,0-2.54.66406,7.15277,7.15277,0,0,0-2.1416,1.66016l-.13281-.0332V14.9917l-.23242-.19922-5.57812.36523v1.0957a7.93969,7.93969,0,0,1,1.0293.14063,2.35775,2.35775,0,0,1,.83008.30762,2.13562,2.13562,0,0,1,.64746.74707,2.01285,2.01285,0,0,1,.249.96289v17.415a2.24215,2.24215,0,0,1-.19922.97949,1.12291,1.12291,0,0,1-.69727.58105,4.63267,4.63267,0,0,1-.86328.166q-.48193.0498-.99609.083v1.0957h9.14746ZM56.74316,18.2124a6.34114,6.34114,0,0,1,1.49414-1.28711,3.87078,3.87078,0,0,1,2.0918-.53906,3.913,3.913,0,0,1,2.19141.59766A4.65,4.65,0,0,1,63.998,18.54443a7.163,7.163,0,0,1,.83008,2.22461,12.32521,12.32521,0,0,1,.26563,2.50684,13.49915,13.49915,0,0,1-.31543,3.03809,7.50608,7.50608,0,0,1-.97949,2.39063,4.17146,4.17146,0,0,1-1.44434,1.38672,3.58938,3.58938,0,0,1-1.793.48926,3.70338,3.70338,0,0,1-1.46094-.25684,4.78718,4.78718,0,0,1-1.1123-.67285,4.34445,4.34445,0,0,1-.75537-.83008,3.60613,3.60613,0,0,1-.48975-.92969Z"/><path class="cls-1" d="M72.94629,27.7417a4.548,4.548,0,0,0,.83838,2.92969,3.52949,3.52949,0,0,0,2.897,1.03809,7.82516,7.82516,0,0,0,2.35742-.30762q.9624-.30615,2.042-.75488V29.43506a5.45458,5.45458,0,0,1-1.13721.19141q-.80566.07324-1.22021.07422a3.4071,3.4071,0,0,1-1.42773-.249,1.70415,1.70415,0,0,1-.79687-.73047,3.18755,3.18755,0,0,1-.35693-1.2041,16.37406,16.37406,0,0,1-.07471-1.71777V16.65186h4.665V15.05811H76.03418V9.96143H73.0127v5.09668H69.99121v1.59375h2.95508Z"/><path class="cls-1" d="M83.91992,7.65479a2.166,2.166,0,0,1,.67236.82227,2.50839,2.50839,0,0,1,.25732,1.12109V28.5708a1.81875,1.81875,0,0,1-.23242.97168,1.23336,1.23336,0,0,1-.69727.52344,3.94794,3.94794,0,0,1-.71387.125q-.43213.041-.81348.07422v1.0957h7.98535v-1.0957a5.28323,5.28323,0,0,1-.80469-.11621,3.8937,3.8937,0,0,1-.72266-.249,1.378,1.378,0,0,1-.69727-.57227,1.88638,1.88638,0,0,1-.21582-.95508V5.91064l-.23242-.249-6.15918.36523v1.0625a10.09084,10.09084,0,0,1,1.27832.19922A3.42521,3.42521,0,0,1,83.91992,7.65479Z"/><path class="cls-1" d="M94.3457,29.20264a6.79409,6.79409,0,0,0,2.44824,1.89258,8.069,8.069,0,0,0,3.46191.69727,6.94172,6.94172,0,0,0,3.96777-1.16211,8.39194,8.39194,0,0,0,2.75586-3.12109l-1.16211-.71387a6.86333,6.86333,0,0,1-2.06641,2.49512,4.59288,4.59288,0,0,1-2.54883.69238,5.22,5.22,0,0,1-2.49023-.55762,4.61728,4.61728,0,0,1-1.69336-1.52246,6.987,6.987,0,0,1-.9707-2.3125,12.87089,12.87089,0,0,1-.30762-2.92871h10.84082v-1.0957a9.64458,9.64458,0,0,0-.373-2.73926,6.19154,6.19154,0,0,0-1.1377-2.19141,5.46426,5.46426,0,0,0-2.0752-1.54395,7.5789,7.5789,0,0,0-3.07129-.56445,6.756,6.756,0,0,0-3.14551.72266,7.17093,7.17093,0,0,0-2.34961,1.90039,8.83495,8.83495,0,0,0-1.48633,2.76367,9.929,9.929,0,0,0-.50586,3.12988,11.81471,11.81471,0,0,0,.47266,3.37012A8.06142,8.06142,0,0,0,94.3457,29.20264Zm2.64746-11.96582a3.55872,3.55872,0,0,1,2.89746-1.44824,2.84794,2.84794,0,0,1,1.71.48047,3.36522,3.36522,0,0,1,1.0459,1.24121,6.0861,6.0861,0,0,1,.50684,1.77051,13.61149,13.61149,0,0,1,.15723,1.98633H95.74023A6.74381,6.74381,0,0,1,96.99316,17.23682Z"/><path class="cls-1" d="M110.84766,27.7417a4.54522,4.54522,0,0,0,.83887,2.92969,3.52773,3.52773,0,0,0,2.89648,1.03809,7.82738,7.82738,0,0,0,2.35742-.30762q.9624-.30615,2.042-.75488V29.43506a5.45448,5.45448,0,0,1-1.1377.19141q-.80566.07324-1.21973.07422a3.40864,3.40864,0,0,1-1.42773-.249,1.70415,1.70415,0,0,1-.79687-.73047,3.1699,3.1699,0,0,1-.35645-1.2041,16.09447,16.09447,0,0,1-.0752-1.71777V16.65186h4.665V15.05811h-4.69824V9.96143h-3.02148v5.09668h-3.02148v1.59375h2.95508Z"/><path class="cls-1" d="M122.585,27.7417a4.55088,4.55088,0,0,0,.83789,2.92969,3.53125,3.53125,0,0,0,2.89746,1.03809,7.82294,7.82294,0,0,0,2.35742-.30762q.9624-.30615,2.042-.75488V29.43506a5.45469,5.45469,0,0,1-1.13672.19141q-.80566.07324-1.2207.07422a3.40556,3.40556,0,0,1-1.42773-.249,1.70415,1.70415,0,0,1-.79687-.73047,3.2054,3.2054,0,0,1-.35742-1.2041,16.66362,16.66362,0,0,1-.07422-1.71777V16.65186h4.665V15.05811h-4.69824V9.96143h-3.02148v5.09668h-3.02148v1.59375H122.585Z"/><path class="cls-1" d="M134.25586,29.20264a6.79409,6.79409,0,0,0,2.44824,1.89258,8.069,8.069,0,0,0,3.46191.69727,6.94172,6.94172,0,0,0,3.96777-1.16211,8.39194,8.39194,0,0,0,2.75586-3.12109l-1.16211-.71387a6.86333,6.86333,0,0,1-2.06641,2.49512,4.59288,4.59288,0,0,1-2.54883.69238,5.22,5.22,0,0,1-2.49023-.55762,4.61728,4.61728,0,0,1-1.69336-1.52246,6.987,6.987,0,0,1-.9707-2.3125,12.87089,12.87089,0,0,1-.30762-2.92871h10.84082v-1.0957a9.64458,9.64458,0,0,0-.373-2.73926,6.19155,6.19155,0,0,0-1.1377-2.19141,5.46426,5.46426,0,0,0-2.0752-1.54395,7.5789,7.5789,0,0,0-3.07129-.56445,6.756,6.756,0,0,0-3.14551.72266,7.17093,7.17093,0,0,0-2.34961,1.90039,8.83495,8.83495,0,0,0-1.48633,2.76367,9.929,9.929,0,0,0-.50586,3.12988,11.81471,11.81471,0,0,0,.47266,3.37012A8.06142,8.06142,0,0,0,134.25586,29.20264Zm2.64746-11.96582a3.55872,3.55872,0,0,1,2.89746-1.44824,2.84794,2.84794,0,0,1,1.71.48047,3.36522,3.36522,0,0,1,1.0459,1.24121,6.0861,6.0861,0,0,1,.50684,1.77051,13.61149,13.61149,0,0,1,.15723,1.98633h-7.57031A6.74382,6.74382,0,0,1,136.90332,17.23682Z"/><path class="cls-1" d="M150.27637,16.66748a2.01637,2.01637,0,0,1,.67188.79688,2.29976,2.29976,0,0,1,.24121,1.01074V28.57373a1.87681,1.87681,0,0,1-.22363.9707,1.19681,1.19681,0,0,1-.68945.52148,3.04127,3.04127,0,0,1-.70508.13281c-.27148.02246-.53516.04395-.78906.06641v1.0957H157.415v-1.0957q-.48193-.03369-1.13672-.11621a4.46623,4.46623,0,0,1-1.07129-.249,1.3625,1.3625,0,0,1-.70605-.54785,1.79534,1.79534,0,0,1-.22363-.94629v-9.5293a5.40543,5.40543,0,0,1,1.77637-1.793,3.6729,3.6729,0,0,1,1.82617-.63086q-.0498.29883-.10742.59766a3.46419,3.46419,0,0,0-.05859.66406,1.46268,1.46268,0,0,0,.49023,1.0625,1.93855,1.93855,0,0,0,1.41895.48145,1.4088,1.4088,0,0,0,1.27832-.65527,2.75432,2.75432,0,0,0,.415-1.50293,2.52409,2.52409,0,0,0-.65527-1.82617,2.25758,2.25758,0,0,0-1.70215-.68066,4.84366,4.84366,0,0,0-2.30762.69727,7.43381,7.43381,0,0,0-2.291,2.042h-.083V15.0249l-.23242-.23242-5.44531.36523v1.0957a6.58317,6.58317,0,0,1,.92969.125A2.28109,2.28109,0,0,1,150.27637,16.66748Z"/><path class="cls-1" d="M6.18652,0V40.99951h167V0Zm165,38.99951h-163V31.7782a10.24188,10.24188,0,0,0,1.665.14709,10.20766,10.20766,0,0,0,5.60645-1.502,10.287,10.287,0,0,0,3.78223-5.00586l-1.24512-.59766a9.16305,9.16305,0,0,1-1.02832,2.02539,8.73894,8.73894,0,0,1-1.459,1.66016,6.65648,6.65648,0,0,1-1.957,1.12109,6.99722,6.99722,0,0,1-2.4707.42285,6.6762,6.6762,0,0,1-2.89355-.63483V9.14252a6.4848,6.4848,0,0,1,2.37891-.44281,4.86781,4.86781,0,0,1,2.50391.63965,6.03032,6.03032,0,0,1,1.89014,1.76758,10.321,10.321,0,0,1,1.24365,2.43164,19.85963,19.85963,0,0,1,.7959,2.665h1.36133l-.14941-8.40039H16.88281l-.68018,1.12891a11.70578,11.70578,0,0,0-2.687-1.21191,10.73048,10.73048,0,0,0-3.15088-.43164,11.32724,11.32724,0,0,0-2.17822.21063V2h163Z"/><path class="cls-1" d="M2.14484,12.29834A13.5133,13.5133,0,0,0,.91309,14.77783,15.36409,15.36409,0,0,0,0,20.20459a14.67171,14.67171,0,0,0,.93066,5.374,13.3772,13.3772,0,0,0,1.21417,2.38275Z"/></svg>